<?xml version="1.0" encoding="UTF-8" standalone="no"?>
<!DOCTYPE svg PUBLIC "-//W3C//DTD SVG 1.1//EN" "http://www.w3.org/Graphics/SVG/1.1/DTD/svg11.dtd">
<svg width="100%" height="100%" viewBox="0 0 41 69" version="1.1" xmlns="http://www.w3.org/2000/svg" xmlns:xlink="http://www.w3.org/1999/xlink" xml:space="preserve" style="fill-rule:evenodd;clip-rule:evenodd;stroke-linejoin:round;stroke-miterlimit:1.41421;">
    <g transform="matrix(1,0,0,1,-24.8,-9.99065)">
        <path d="M57.2,60.3L33,60.3L33,77.6L57.2,77.6L57.2,74.7L57.2,60.3Z" style="fill:rgb(19,22,43);"/>
    </g>
    <g transform="matrix(1.02494,0,0,1.04108,-25.3498,-12.6307)">
        <path d="M57.176,34.987L33.593,34.958L29.878,38.352L27.59,43.363L26.562,49.631L27.95,53.724L30.504,57.146L58.186,57.313L61.268,52.977L62.173,48.581L61.698,44.5L57.176,34.987Z" style="fill:rgb(173,207,199);"/>
    </g>
    <g transform="matrix(1,0,0,1,-24.8,-9.99065)">
        <path d="M34.7,60.3C34.5,60.5 34.4,60.7 34.2,60.9L34.2,60.3L34.7,60.3Z" style="fill:rgb(173,207,199);"/>
        <path d="M34.2,64.1C34.5,62.4 35.5,61.1 36.8,60.3L41.5,60.3C42.9,61.1 44,62.5 44.2,64.3L44.2,69.7C43,68.2 41.2,67.3 39.3,67.3C37.2,67.3 35.4,68.3 34.2,69.9L34.2,64.1L34.2,64.1Z" style="fill:rgb(173,207,199);"/>
        <path d="M44.3,72.7L44.3,73.1L34.3,73.1C34.6,70.5 36.7,68.5 39.3,68.5C41.8,68.6 43.8,70.3 44.3,72.7Z" style="fill:rgb(173,207,199);"/>
        <path d="M44.3,74.6L44.3,76.2L34.3,76.2L34.3,74.5L44.3,74.6Z" style="fill:rgb(173,207,199);"/>
        <path d="M43.7,60.3L46.2,60.3C45.7,60.8 45.3,61.4 45,62.1C44.6,61.4 44.2,60.8 43.7,60.3Z" style="fill:rgb(173,207,199);"/>
        <path d="M45.6,64.3C45.8,62.6 46.8,61.1 48.3,60.3L53,60.3C54.4,61.1 55.5,62.5 55.7,64.3L55.7,69.9C54.5,68.3 52.7,67.3 50.6,67.3C48.5,67.3 46.7,68.4 45.5,70L45.5,64.3L45.6,64.3Z" style="fill:rgb(173,207,199);"/>
        <path d="M45.7,73.2C46,70.6 48.1,68.6 50.7,68.6C53.3,68.6 55.4,70.6 55.7,73.2L45.7,73.2Z" style="fill:rgb(173,207,199);"/>
        <rect x="45.8" y="74.5" width="10" height="1.6" style="fill:rgb(173,207,199);"/>
        <path d="M55.8,61C55.6,60.8 55.4,60.5 55.2,60.3L55.8,60.3L55.8,61Z" style="fill:rgb(173,207,199);"/>
    </g>
    <g transform="matrix(1,0,0,1,-24.8,-9.99065)">
        <path d="M31,57.8L32,56.8C28.4,53.7 27,49.7 27.8,45.1C28.2,42.9 28.9,41.2 29.5,40.1C29.6,40 29.6,39.9 29.7,39.7C30.7,37.7 32.3,36 34.2,34.6C36.9,37.7 40.9,39.6 45.3,39.6C49.6,39.6 53.6,37.7 56.2,34.8C58,36.2 59.4,37.8 60.4,39.7C60.5,39.8 60.5,40 60.6,40.1C61.1,41.2 61.9,43 62.3,45.1C63.1,49.7 61.6,53.7 58.1,56.8L59.1,57.8C66,51.8 63.9,44.2 62.3,40.4L62.3,27C62.3,25.9 61.4,25 60.3,25L59.9,25C59.7,17.3 53.2,11.1 45.3,11.1C37.4,11.1 30.9,17.3 30.7,25L30.3,25C29.2,25 28.3,25.9 28.3,27L28.3,39.5C26.5,42.8 23.5,51.3 31,57.8Z" style="fill:rgb(19,22,43);"/>
    </g>
    <g transform="matrix(1,0,0,1,-24.8,-9.99065)">
        <path d="M60.2,26.3C60.6,26.3 60.9,26.6 60.9,27L60.9,38C59.9,36.4 58.6,35 57,33.8C58.6,31.7 59.6,29.1 59.8,26.4L60.2,26.4L60.2,26.3Z" style="fill:rgb(173,207,199);"/>
        <path d="M45.2,12.5C52.5,12.5 58.4,18.3 58.4,25.4C58.4,32.5 52.5,38.3 45.2,38.3C37.9,38.3 32,32.5 32,25.4C32,18.3 37.9,12.5 45.2,12.5Z" style="fill:rgb(173,207,199);"/>
        <path d="M29.5,27C29.5,26.6 29.8,26.3 30.2,26.3L30.7,26.3C30.9,29 31.8,31.4 33.3,33.5C31.8,34.6 30.6,35.9 29.5,37.3L29.5,27L29.5,27Z" style="fill:rgb(173,207,199);"/>
    </g>
    <g transform="matrix(1,0,0,1,-24.8,-9.99065)">
        <path d="M45.2,37.3C51.9,37.3 57.4,31.8 57.4,25C57.4,22.1 56.6,20.5 55.9,19.6C55.9,19.6 55.8,19.5 55.7,19.3L55.6,19.2C54.7,18.3 51.8,16.3 45.2,16.3C45.2,16.3 45.1,16.3 44.9,16.3C42.9,16.3 36.4,16.5 34.4,19.6C33.8,20.5 33,22.1 33,25C33,31.8 38.5,37.3 45.2,37.3Z" style="fill:rgb(19,22,43);"/>
    </g>
    <g transform="matrix(1,0,0,1,-24.8,-9.99065)">
        <path d="M62.6,58L27.4,58L24.8,58L24.8,78.9L27.4,78.9L27.4,60.3L62.8,60.3L62.8,78.9L65.4,78.9L65.4,60.3L65.4,58L62.6,58Z" style="fill:rgb(19,22,43);"/>
    </g>
    <g transform="matrix(1,0,0,1,-24.8,-9.99065)">
        <path d="M56.9,55.9L56.9,40C56.9,39.4 56.5,38.9 55.9,38.9L34,38.9C33.5,38.9 33,39.4 33,40L33,55.8L29.8,55.8L29.8,57.1C29.8,57.7 30.2,58.2 30.8,58.2L59.3,58.2C59.8,58.2 60.3,57.7 60.3,57.1L60.3,55.8L56.9,55.8L56.9,55.9Z" style="fill:rgb(19,22,43);stroke:rgb(237,238,233);stroke-width:0.27px;"/>
    </g>
    <g transform="matrix(1,0,0,1,-24.8,-9.99065)">
        <path d="M35.2,20.2C37,17.4 43.6,17.3 45,17.3C45.2,17.3 45.3,17.3 45.3,17.3C51.8,17.3 54.4,19.4 55.1,20L55.4,20.3C55.9,20.9 56.7,22.3 56.7,25.1C56.7,31.4 51.6,36.6 45.4,36.6C39.2,36.6 34.1,31.5 34.1,25.1C33.9,22.2 34.7,20.8 35.2,20.2Z" style="fill:rgb(237,238,233);"/>
    </g>
    <g transform="matrix(1,0,0,1,-24.8,-9.99065)">
        <path d="M45,50.1C44,50.1 43.3,49.3 43.3,48.4C43.3,47.4 44.1,46.7 45,46.7C46,46.7 46.7,47.5 46.7,48.4C46.7,49.3 46,50.1 45,50.1Z" style="fill:rgb(237,238,233);"/>
    </g>
</svg>
